<?xml version="1.0" standalone="no"?>
<!DOCTYPE svg PUBLIC "-//W3C//DTD SVG 20010904//EN"
 "http://www.w3.org/TR/2001/REC-SVG-20010904/DTD/svg10.dtd">
<svg version="1.0" xmlns="http://www.w3.org/2000/svg"
 width="391.000000pt" height="391.000000pt" viewBox="0 0 391.000000 391.000000"
 preserveAspectRatio="xMidYMid meet">
<metadata>
Created by potrace 1.11, written by Peter Selinger 2001-2013
</metadata>
<g transform="translate(0.000000,391.000000) scale(0.100000,-0.100000)"
fill="#000000" stroke="none">
<path d="M572 3893 c-19 -9 -70 -57 -115 -106 -45 -50 -133 -144 -195 -211
l-114 -121 5 -60 c2 -41 20 -101 55 -190 57 -146 93 -282 115 -430 45 -299 27
-563 -76 -1090 -35 -184 -41 -228 -41 -355 -1 -133 1 -151 26 -218 42 -117
106 -218 196 -313 154 -162 338 -265 764 -428 330 -126 431 -179 586 -309 100
-84 125 -84 223 3 45 41 163 117 239 155 33 17 180 75 327 131 420 158 590
249 746 398 186 178 268 377 268 651 0 134 -8 197 -46 380 -54 262 -60 311
-60 590 0 212 4 284 18 360 42 230 125 451 207 558 84 109 90 96 -179 367
-127 127 -242 235 -258 242 -21 9 -340 12 -1343 12 -1200 1 -1318 -1 -1348
-16z m2629 -130 c27 -5 70 -42 200 -172 179 -178 195 -203 166 -258 -8 -16
-31 -58 -51 -94 -45 -83 -109 -273 -135 -405 -60 -296 -51 -593 34 -1089 63
-369 44 -560 -76 -762 -46 -77 -157 -188 -253 -252 -115 -78 -309 -168 -581
-269 -313 -117 -335 -127 -479 -222 -67 -44 -132 -80 -144 -80 -12 0 -47 21
-78 46 -124 101 -235 156 -594 294 -354 136 -522 225 -647 343 -99 93 -188
238 -218 354 -23 88 -19 229 10 368 63 296 75 356 89 455 66 454 20 931 -124
1268 -28 67 -30 77 -19 110 7 20 42 68 78 107 36 39 96 105 133 147 39 44 85
84 110 97 l43 21 1251 0 c688 0 1267 -3 1285 -7z"/>
<path d="M1874 3588 c-17 -18 -52 -60 -79 -93 l-48 -60 7 -245 c3 -135 11
-357 16 -495 29 -762 25 -893 -31 -1033 -16 -41 -29 -78 -29 -83 0 -5 16 -9
36 -9 47 0 84 37 114 115 22 56 23 80 31 380 4 176 8 469 9 650 2 408 8 499
33 503 15 3 17 -6 18 -80 0 -46 6 -371 14 -723 14 -651 16 -691 55 -765 25
-50 62 -80 97 -80 39 0 42 13 14 68 -11 21 -27 74 -37 117 -22 99 -24 395 -6
775 23 471 32 892 19 916 -7 12 -43 57 -80 98 -80 89 -104 96 -153 44z"/>
<path d="M954 2928 c4 -68 11 -188 16 -268 14 -207 28 -594 36 -965 8 -400 -9
-627 -57 -757 -16 -43 -29 -81 -29 -84 0 -13 38 2 155 61 141 71 219 90 322
78 46 -5 63 -14 145 -81 150 -120 183 -126 176 -31 -4 51 -10 65 -46 108 -58
69 -65 90 -38 122 11 14 36 36 54 48 35 24 38 37 21 75 -13 29 -106 80 -163
91 -53 9 -132 50 -141 72 -21 53 -25 81 -15 129 9 43 17 56 49 78 41 29 104
35 160 15 42 -15 51 -5 58 62 4 48 1 63 -31 129 -20 41 -36 88 -36 105 0 16
16 68 35 115 95 228 95 378 3 552 -92 172 -254 299 -546 427 -141 62 -136 65
-128 -81z m316 -354 c53 -33 117 -104 139 -154 25 -55 27 -133 6 -291 -17
-128 -13 -179 21 -261 13 -32 24 -60 24 -63 0 -3 -29 -5 -64 -5 -35 0 -80 -7
-99 -15 -20 -8 -38 -15 -40 -15 -2 0 -7 132 -10 293 -5 232 -10 314 -27 401
-11 60 -20 117 -20 127 0 21 16 17 70 -17z m17 -1287 c48 -51 72 -65 168 -94
40 -12 61 -24 63 -35 3 -17 -11 -18 -179 -18 l-182 0 7 83 c3 45 9 104 13 131
l6 49 29 -34 c16 -19 50 -56 75 -82z"/>
<path d="M2715 2976 c-77 -39 -176 -96 -220 -125 -104 -70 -232 -200 -267
-271 -80 -161 -77 -344 10 -547 48 -113 49 -123 7 -207 -37 -75 -47 -142 -31
-194 7 -21 12 -23 39 -17 79 17 138 17 163 0 87 -57 85 -213 -3 -258 -15 -8
-52 -20 -81 -26 -102 -21 -169 -68 -184 -128 -5 -17 3 -27 43 -52 42 -26 49
-35 49 -61 0 -38 -13 -64 -56 -113 -31 -33 -34 -43 -34 -97 0 -60 0 -60 29
-60 30 0 88 38 167 110 64 58 80 65 174 64 100 0 201 -31 300 -90 45 -27 112
-56 117 -51 3 3 -6 34 -20 69 -46 118 -52 200 -52 763 1 417 5 599 24 918 12
219 20 410 17 423 -10 37 -36 30 -191 -50z m-45 -368 c0 -2 -11 -70 -25 -153
-21 -123 -27 -199 -32 -417 -6 -240 -8 -266 -22 -259 -9 5 -52 11 -95 15 -44
4 -83 9 -87 11 -3 3 5 28 20 56 33 69 37 140 16 313 -17 146 -14 198 15 256
22 41 122 141 165 163 28 15 45 20 45 15z m19 -1270 c7 -28 14 -85 18 -125 l6
-73 -182 0 c-132 0 -181 3 -181 12 0 22 33 48 60 48 71 0 139 43 208 131 25
33 49 59 53 59 4 0 12 -23 18 -52z"/>
<path d="M1583 1511 c-49 -30 -52 -59 -12 -92 40 -34 64 -36 79 -9 20 38 76
19 164 -54 49 -40 51 -41 125 -41 82 0 76 -2 205 90 57 42 73 43 88 10 14 -31
29 -31 83 0 49 29 51 51 7 85 -26 21 -81 27 -98 11 -5 -6 -128 -11 -280 -12
-238 -2 -274 0 -295 15 -29 20 -27 20 -66 -3z"/>
<path d="M1817 1253 c-4 -3 -7 -17 -7 -30 0 -23 0 -23 130 -23 l130 0 0 24 c0
13 -7 27 -16 30 -21 8 -229 8 -237 -1z"/>
<path d="M1823 1155 c-22 -9 -33 -21 -33 -35 0 -19 5 -20 149 -20 96 0 152 4
156 11 4 6 -3 21 -16 35 -21 22 -29 24 -123 24 -64 -1 -113 -6 -133 -15z"/>
<path d="M1788 1064 c-9 -8 10 -66 24 -76 19 -11 236 -10 259 2 13 8 19 21 19
45 l0 35 -148 0 c-82 0 -151 -3 -154 -6z"/>
<path d="M1870 860 c0 -13 130 -13 150 0 10 7 -11 10 -67 10 -49 0 -83 -4 -83
-10z"/>
<path d="M1863 800 c-49 -22 -55 -46 -22 -76 17 -16 37 -19 109 -19 95 0 120
11 120 51 0 17 -10 29 -40 44 -49 25 -112 25 -167 0z"/>
<path d="M1831 662 c-19 -15 -22 -25 -19 -87 4 -86 23 -94 50 -21 9 27 23 53
30 58 7 4 36 7 63 6 49 -3 50 -4 63 -45 12 -38 17 -43 44 -43 l30 0 -4 57 c-7
82 -24 93 -143 93 -73 0 -97 -4 -114 -18z"/>
</g>
</svg>
