<?xml version="1.0" standalone="no"?>
<!DOCTYPE svg PUBLIC "-//W3C//DTD SVG 20010904//EN"
 "http://www.w3.org/TR/2001/REC-SVG-20010904/DTD/svg10.dtd">
<svg version="1.0" xmlns="http://www.w3.org/2000/svg"
 width="604.000000pt" height="604.000000pt" viewBox="0 0 604.000000 604.000000"
 preserveAspectRatio="xMidYMid meet">
<metadata>
Created by potrace 1.11, written by Peter Selinger 2001-2013
</metadata>
<g transform="translate(0.000000,604.000000) scale(0.100000,-0.100000)"
fill="#000000" stroke="none">
<path d="M0 3020 l0 -3020 3020 0 3020 0 0 3020 0 3020 -3020 0 -3020 0 0
-3020z m1695 2676 c66 -19 161 -43 210 -53 127 -25 331 -22 505 6 334 55 394
63 541 68 176 6 293 -3 561 -48 301 -49 404 -56 555 -35 70 10 197 38 282 62
84 24 155 44 157 44 2 0 4 -18 4 -39 0 -73 40 -272 76 -381 62 -187 190 -363
354 -487 49 -38 89 -73 89 -79 1 -6 -21 -60 -48 -120 -158 -352 -191 -730
-132 -1474 42 -515 43 -861 6 -1086 -68 -406 -166 -582 -437 -782 -178 -131
-338 -216 -615 -326 -369 -145 -506 -249 -686 -524 l-94 -143 -95 143 c-187
283 -300 370 -680 523 -314 126 -478 215 -663 360 -233 182 -326 357 -390 731
-44 258 -42 577 6 1171 27 328 30 712 5 890 -24 177 -77 373 -136 505 -28 62
-54 118 -56 124 -3 6 26 34 64 62 139 103 288 283 349 420 47 108 91 290 108
455 5 48 9 57 23 53 9 -3 71 -21 137 -40z"/>
<path d="M2699 5496 c-2 -2 -22 -6 -44 -10 -22 -3 -119 -17 -215 -31 -268 -39
-473 -34 -676 19 l-51 13 -13 -56 c-33 -148 -138 -382 -225 -501 -27 -36 -86
-104 -133 -152 l-85 -87 32 -84 c131 -348 157 -730 100 -1472 -15 -192 -22
-378 -23 -590 -1 -287 1 -320 23 -443 35 -196 40 -153 5 58 -2 14 3 7 10 -15
l14 -40 2 40 c2 38 3 39 9 10 7 -30 8 -30 18 15 10 39 11 41 13 15 1 -16 5
-39 10 -50 6 -14 8 -7 5 25 -3 25 4 7 14 -40 59 -271 92 -343 215 -466 148
-149 336 -260 648 -385 288 -115 423 -196 554 -331 44 -45 88 -94 97 -107 l16
-24 102 107 c146 153 313 259 549 346 205 77 364 156 503 254 236 164 315 281
369 547 21 102 37 139 38 87 1 -20 4 -18 20 12 16 30 19 32 26 17 3 -10 2 -23
-5 -30 -13 -13 -14 -27 -3 -27 5 0 14 10 20 22 8 18 10 8 7 -47 -5 -106 10
-23 30 160 14 130 15 188 6 440 -6 160 -16 340 -21 400 -30 348 -39 772 -20
980 17 184 71 418 129 563 l21 54 -79 78 c-103 103 -170 193 -230 310 -62 122
-99 214 -127 320 -15 58 -27 84 -36 81 -150 -40 -351 -60 -506 -50 -107 8
-129 11 -312 40 -69 11 -143 21 -165 24 -38 4 -38 3 8 -8 35 -9 45 -15 37 -23
-8 -8 -8 -14 -2 -18 7 -4 7 -18 1 -38 -6 -23 -5 -34 4 -40 7 -5 0 -8 -18 -8
-24 0 -27 -2 -15 -11 14 -10 -20 -8 -145 6 -64 8 -69 -3 -37 -71 16 -32 46
-97 67 -144 21 -47 56 -123 77 -170 45 -96 51 -111 103 -230 21 -47 53 -117
71 -157 19 -40 34 -75 34 -78 0 -3 16 -39 35 -81 19 -41 35 -77 35 -79 0 -11
71 -155 76 -155 4 0 48 16 98 36 131 52 277 130 348 187 33 27 58 42 55 33
-22 -57 -30 -169 -26 -376 2 -124 3 -395 2 -602 -1 -231 2 -378 8 -378 5 0 9
-7 9 -16 0 -9 14 -63 32 -120 17 -57 28 -107 25 -110 -9 -9 -34 13 -50 45 -31
58 -47 86 -47 81 0 -3 -7 -68 -15 -145 -36 -339 -9 -685 71 -906 33 -92 26
-100 -58 -71 -93 33 -208 52 -348 59 -162 7 -269 -7 -290 -39 -54 -82 -124
-130 -208 -142 l-43 -6 8 47 c4 27 7 82 6 123 0 41 2 68 6 60 3 -8 13 -17 21
-19 25 -6 45 -9 53 -10 5 -1 5 -7 2 -13 -4 -7 5 0 19 15 44 48 31 132 -34 218
-43 58 -59 104 -40 122 8 9 10 8 5 -4 -7 -18 19 -34 37 -22 7 3 8 1 4 -5 -15
-24 11 -11 42 21 29 30 32 37 22 62 -6 15 -9 29 -7 31 1 2 19 -1 38 -5 20 -5
58 -5 85 -1 51 8 75 4 36 -7 -12 -3 -22 -9 -22 -13 0 -5 9 -6 19 -3 11 3 33
-2 50 -10 29 -14 32 -14 69 13 77 56 108 122 99 213 -6 62 -48 123 -107 154
-39 21 -55 24 -120 20 -41 -2 -82 -7 -91 -11 -13 -6 -17 6 -27 69 -12 74 -11
77 12 108 61 83 74 213 36 377 -12 52 -29 122 -36 155 -22 90 -29 287 -14 373
16 99 74 211 149 294 33 35 59 71 57 79 -1 8 -12 33 -24 56 -12 23 -30 64 -41
90 -10 26 -32 77 -49 113 -16 36 -51 115 -77 175 -72 169 -75 176 -105 240
-15 33 -31 71 -35 85 -4 14 -12 30 -17 37 -5 7 -6 18 -2 24 5 8 3 9 -6 4 -10
-6 -12 -4 -7 9 4 10 3 15 -3 11 -6 -3 -10 0 -10 7 0 8 -20 61 -44 118 -24 58
-54 130 -67 160 -36 88 -23 83 -204 76 -88 -3 -178 -8 -200 -10 -34 -4 -36 -4
-10 3 l30 9 -35 2 c-40 2 -88 18 -57 19 9 1 17 5 17 10 0 5 10 7 22 3 l22 -5
-22 23 c-12 13 -22 34 -22 46 0 19 8 24 53 32 38 7 44 10 21 11 -17 0 -33 -1
-35 -3z m-38 -164 c-7 -2 -18 1 -23 6 -8 8 -4 9 13 5 13 -4 18 -8 10 -11z
m487 -275 l112 -147 0 -231 c0 -266 -14 -734 -36 -1194 -24 -512 -28 -715 -15
-762 6 -22 27 -64 46 -92 19 -28 35 -53 35 -57 0 -4 -17 -4 -39 -1 -57 7 -120
63 -155 137 -21 44 -21 58 -27 905 -4 473 -9 871 -12 885 -3 14 -11 79 -18
145 -14 140 -21 129 -38 -61 -24 -268 -31 -538 -31 -1174 l0 -655 -24 -51
c-13 -28 -40 -64 -60 -80 -20 -16 -36 -31 -36 -34 0 -3 74 -4 165 -2 l165 3
26 -26 c21 -21 36 -27 70 -27 29 0 44 -4 44 -13 0 -22 39 -25 50 -4 9 15 22
19 66 19 31 0 69 -7 86 -16 28 -15 30 -15 25 0 -11 27 2 18 18 -14 8 -16 15
-43 15 -60 0 -25 -8 -35 -47 -60 -37 -24 -58 -30 -100 -30 -29 0 -53 5 -53 10
0 16 -38 50 -56 50 -11 0 -15 -6 -11 -19 4 -17 -5 -19 -126 -24 -94 -3 -132
-9 -138 -18 -6 -11 0 -15 28 -19 43 -6 63 -31 44 -54 -10 -12 -33 -16 -95 -16
-92 0 -109 7 -104 41 2 20 10 25 43 29 22 3 41 10 42 16 2 13 -93 24 -204 24
-66 0 -73 2 -73 20 0 29 -26 24 -52 -10 -31 -43 -97 -43 -167 2 -47 28 -51 34
-47 64 3 32 30 84 42 84 4 0 1 -7 -6 -15 -16 -19 -3 -19 30 0 14 8 49 14 78
15 44 0 57 -4 73 -22 10 -13 18 -18 19 -11 0 7 7 10 15 7 9 -4 15 0 15 8 0 12
15 14 70 13 38 -1 67 2 64 7 -3 4 -12 8 -19 8 -9 0 -12 6 -9 15 7 17 -7 19
-53 6 l-33 -10 17 32 c8 18 19 34 23 37 4 3 17 25 29 48 31 60 36 145 22 358
-22 338 -42 930 -47 1399 l-6 470 117 158 c65 87 121 155 125 150 4 -4 57 -74
118 -156z m-952 -34 c68 -179 166 -450 194 -533 10 -30 44 -127 75 -215 32
-88 58 -167 59 -175 1 -8 7 -26 15 -39 8 -14 9 -21 2 -16 -6 3 2 -14 18 -40
111 -175 126 -366 54 -680 -49 -209 -51 -311 -10 -400 15 -33 34 -67 42 -75
11 -13 12 -24 5 -51 -6 -18 -10 -51 -10 -73 0 -32 -3 -37 -17 -31 -10 4 -52
10 -94 12 -59 4 -83 2 -110 -12 -92 -47 -137 -132 -119 -228 13 -69 53 -123
117 -159 52 -30 86 -31 62 -2 -12 15 0 19 51 15 20 -1 22 0 10 10 -12 8 -7 10
21 6 20 -3 53 -2 73 3 39 8 41 5 26 -34 -8 -23 -5 -29 26 -52 20 -15 47 -28
62 -30 15 -1 21 0 15 3 -7 2 -13 9 -13 14 0 4 7 6 15 3 8 -4 15 -1 15 7 0 7 3
10 6 6 11 -11 -18 -81 -47 -115 -61 -69 -79 -177 -38 -223 11 -13 18 -19 15
-12 -4 7 1 11 11 11 34 -3 72 12 75 29 2 9 3 -24 3 -73 0 -49 4 -103 8 -121
l8 -32 -38 5 c-73 10 -120 34 -170 87 -28 29 -52 58 -54 64 -2 7 -38 17 -79
24 -148 23 -448 -8 -561 -58 -47 -21 -69 -20 -69 2 0 8 13 53 29 102 56 168
75 319 75 583 -1 145 -7 293 -17 385 -36 335 -40 432 -33 900 5 429 3 505 -20
619 l-6 30 47 -42 c64 -56 178 -121 310 -176 69 -29 137 -66 183 -100 39 -30
72 -50 72 -45 0 6 6 7 13 3 7 -4 9 -3 4 2 -5 5 -13 9 -19 9 -10 0 -15 12 -22
55 -1 8 -7 24 -13 35 -5 11 -29 76 -53 145 -23 69 -46 134 -50 145 -34 80
-230 679 -229 697 1 17 28 -46 75 -169z m501 -1450 c-3 -10 -5 -4 -5 12 0 17
2 24 5 18 2 -7 2 -21 0 -30z m51 -132 c2 -15 0 -21 -7 -16 -6 3 -9 11 -6 16 4
5 1 9 -4 9 -6 0 -11 5 -11 11 0 20 25 2 28 -20z m1849 -943 c-3 -8 -6 -5 -6 6
-1 11 2 17 5 13 3 -3 4 -12 1 -19z m-3140 -140 c-2 -18 -4 -6 -4 27 0 33 2 48
4 33 2 -15 2 -42 0 -60z m3132 -102 c-5 -6 -8 12 -8 45 l2 54 7 -45 c4 -25 4
-49 -1 -54z m-3122 -8 c-2 -13 -4 -5 -4 17 -1 22 1 32 4 23 2 -10 2 -28 0 -40z
m1685 -12 c27 -42 -5 -57 -120 -58 -126 0 -144 5 -140 40 3 24 8 28 53 33 68
9 198 0 207 -15z m1468 -12 c0 -8 -6 -11 -15 -8 -8 4 -15 9 -15 13 0 4 7 8 15
8 8 0 15 -6 15 -13z m-31 -39 c0 -5 -4 -3 -9 5 -5 8 -9 22 -9 30 0 16 17 -16
18 -35z m-3169 13 c0 -4 -4 -8 -9 -8 -6 0 -12 4 -15 8 -3 5 1 9 9 9 8 0 15 -4
15 -9z m3238 -19 c-3 -8 -7 -3 -11 10 -4 17 -3 21 5 13 5 -5 8 -16 6 -23z
m-1491 -46 c24 -31 -1 -50 -73 -56 -78 -8 -212 2 -220 15 -3 5 -3 20 0 33 6
22 12 24 74 27 117 5 206 -3 219 -19z m4 -83 c22 -12 26 -62 7 -77 -20 -16
-141 -24 -224 -17 -100 9 -129 39 -84 84 18 18 33 20 151 20 72 0 139 -5 150
-10z m-1 -139 c13 -25 13 -27 -6 -45 -12 -13 -40 -16 -135 -16 -125 0 -159 8
-159 38 0 37 20 42 157 42 121 0 133 -2 143 -19z m-67 -77 c50 -7 69 -32 47
-59 -18 -21 -232 -21 -250 0 -19 23 -8 49 25 56 42 9 123 10 178 3z m32 -118
c29 -13 35 -20 35 -46 0 -44 -35 -108 -73 -130 -20 -12 -50 -20 -79 -20 -38 0
-54 6 -82 30 -39 35 -71 107 -62 138 4 12 19 25 34 31 42 15 188 13 227 -3z
m-96 -242 c14 3 36 8 47 12 19 5 24 -1 37 -43 19 -59 30 -123 22 -123 -3 0
-23 13 -43 30 -58 47 -88 48 -150 6 -51 -34 -52 -34 -52 -11 0 12 9 52 20 88
l20 66 37 -15 c20 -9 48 -13 62 -10z"/>
<path d="M2871 3063 c0 -16 3 -22 6 -15 2 6 9 10 14 6 5 -3 9 2 9 10 0 9 8 16
18 15 10 0 12 -3 5 -6 -7 -2 -13 -9 -13 -14 0 -6 4 -8 9 -5 5 4 12 0 14 -6 3
-7 6 -1 6 15 1 24 -2 27 -34 27 -32 0 -35 -3 -34 -27z"/>
<path d="M3104 3076 c-3 -8 -4 -29 -1 -48 3 -29 4 -27 6 12 2 35 4 41 11 25
l9 -20 1 20 c2 17 3 16 10 -5 l8 -25 8 25 c8 24 9 24 15 -10 l6 -35 2 38 c1
36 0 37 -34 37 -21 0 -38 -6 -41 -14z"/>
<path d="M2133 4023 c20 -194 28 -464 25 -840 -3 -421 -3 -422 17 -403 11 10
46 32 79 49 61 33 129 41 180 21 21 -8 25 -6 28 13 2 12 -7 44 -19 70 -13 26
-28 71 -34 100 -15 78 -12 270 6 367 26 144 30 266 11 339 -24 93 -71 174
-137 235 -48 45 -139 106 -157 106 -3 0 -2 -26 1 -57z"/>
<path d="M2450 3103 c0 -15 2 -16 10 -3 8 12 10 12 11 -5 l0 -20 8 20 8 20 5
-20 c5 -18 6 -18 7 3 1 17 -4 22 -24 22 -17 0 -25 -5 -25 -17z"/>
<path d="M2510 3093 c0 -11 3 -14 8 -7 4 6 14 14 22 17 10 4 8 6 -7 6 -16 1
-23 -5 -23 -16z"/>
<path d="M2535 3079 c-4 -6 -5 -12 -2 -15 2 -3 7 2 10 11 7 17 1 20 -8 4z"/>
<path d="M2126 2399 c-3 -19 -12 -90 -21 -159 -9 -69 -18 -136 -21 -150 -5
-23 -3 -21 28 13 35 40 78 57 143 57 29 0 36 -3 25 -10 -13 -9 -13 -10 0 -10
12 0 12 -2 1 -9 -10 -6 -10 -10 -1 -16 6 -4 9 -13 6 -21 -4 -11 7 -14 52 -14
31 0 84 -7 117 -15 82 -20 85 -19 85 14 0 26 -3 29 -50 34 -27 3 -70 15 -95
26 -35 15 -52 18 -71 11 -17 -7 -23 -7 -19 0 3 6 14 10 23 10 11 0 0 15 -31
41 -56 48 -120 132 -147 191 l-18 42 -6 -35z"/>
<path d="M2673 5373 c9 -2 23 -2 30 0 6 3 -1 5 -18 5 -16 0 -22 -2 -12 -5z"/>
<path d="M3844 4042 c-117 -76 -212 -218 -233 -347 -9 -62 -1 -183 20 -280 6
-27 13 -104 16 -171 7 -140 -7 -236 -43 -308 -27 -53 -28 -94 -4 -87 8 2 38 7
65 11 43 5 59 1 110 -23 33 -16 72 -38 86 -48 l27 -19 -2 463 c-1 417 9 672
30 810 3 20 2 37 -4 37 -5 0 -35 -17 -68 -38z m-27 -290 l-2 -74 -42 99 c-55
132 -55 131 -36 159 l16 26 34 -69 c29 -61 33 -76 30 -141z"/>
<path d="M3568 3113 c6 -2 18 -2 25 0 6 3 1 5 -13 5 -14 0 -19 -2 -12 -5z"/>
<path d="M3500 3093 c0 -12 3 -14 8 -7 4 7 16 14 27 17 15 4 14 5 -7 6 -21 1
-28 -4 -28 -16z"/>
<path d="M3902 2407 c-21 -57 -79 -138 -140 -194 l-57 -53 51 0 c112 0 139 -9
175 -56 18 -24 34 -42 36 -40 2 2 -2 26 -8 54 -6 29 -18 113 -27 188 -17 132
-18 135 -30 101z"/>
<path d="M3651 2138 c-23 -11 -66 -22 -95 -25 -52 -5 -52 -5 -48 -38 l4 -32
41 14 c23 8 84 17 136 20 63 4 88 9 77 15 -10 6 -15 18 -12 31 3 16 -1 23 -13
23 -9 1 -23 4 -31 7 -8 3 -35 -4 -59 -15z"/>
<path d="M1452 2125 c0 -11 3 -29 8 -40 11 -25 11 1 0 35 -6 20 -8 21 -8 5z"/>
<path d="M1426 2105 c-3 -9 -5 -31 -5 -48 1 -27 3 -24 9 13 8 48 6 61 -4 35z"/>
<path d="M1482 2065 c0 -16 2 -22 5 -12 2 9 2 23 0 30 -3 6 -5 -1 -5 -18z"/>
<path d="M4631 2004 c0 -11 3 -14 6 -6 3 7 2 16 -1 19 -3 4 -6 -2 -5 -13z"/>
<path d="M4610 1971 c0 -6 4 -13 10 -16 6 -3 7 1 4 9 -7 18 -14 21 -14 7z"/>
<path d="M1421 1944 c0 -11 3 -14 6 -6 3 7 2 16 -1 19 -3 4 -6 -2 -5 -13z"/>
<path d="M3070 805 c-13 -14 -19 -25 -14 -25 8 1 50 50 41 50 -2 0 -14 -11
-27 -25z"/>
<path d="M3039 803 c-13 -16 -12 -17 4 -4 16 13 21 21 13 21 -2 0 -10 -8 -17
-17z"/>
<path d="M3032 750 c0 -14 2 -19 5 -12 2 6 2 18 0 25 -3 6 -5 1 -5 -13z"/>
<path d="M3053 754 c0 -7 4 -11 9 -8 18 12 6 -16 -13 -30 -12 -8 -20 -18 -18
-23 2 -5 16 5 31 22 25 29 25 32 9 42 -14 9 -18 8 -18 -3z"/>
</g>
</svg>
